<svg version="1.1" xmlns="http://www.w3.org/2000/svg" xmlns:xlink="http://www.w3.org/1999/xlink" viewBox="0 0 226 226"><g fill="none" fill-rule="nonzero" stroke="none" stroke-width="1" stroke-linecap="butt" stroke-linejoin="miter" stroke-miterlimit="10" stroke-dasharray="" stroke-dashoffset="0" font-family="none" font-weight="none" font-size="none" text-anchor="none" style="mix-blend-mode: normal"><path d="M0,226v-226h226v226z" fill="none"></path><g><path d="M125.7125,187.8625v-122.8875c0,-8.475 7.0625,-15.5375 15.5375,-15.5375h50.85c5.3675,0 10.4525,3.1075 12.43,8.1925l17.515,40.3975c1.695,3.6725 2.26,7.6275 2.26,11.5825v62.715c0,8.475 -7.0625,15.5375 -15.5375,15.5375z" fill="#bae0bd"></path><path d="M192.1,50.85c4.8025,0 9.3225,2.825 11.3,7.345l17.515,40.3975c1.4125,3.39 2.26,7.0625 2.26,11.0175v62.715c0,7.91 -6.215,14.125 -14.125,14.125h-81.925v-121.475c0,-7.91 6.215,-14.125 14.125,-14.125h50.85M192.1,48.025h-50.85c-9.3225,0 -16.95,7.6275 -16.95,16.95v124.3h84.75c9.3225,0 16.95,-7.6275 16.95,-16.95v-62.715c0,-4.2375 -0.8475,-8.1925 -2.5425,-12.1475l-17.515,-40.3975c-2.5425,-5.3675 -7.91,-9.04 -13.8425,-9.04z" fill="#5e9c76"></path><path d="M177.975,165.2625c-13.26174,0 -24.0125,10.75076 -24.0125,24.0125c0,13.26174 10.75076,24.0125 24.0125,24.0125c13.26174,0 24.0125,-10.75076 24.0125,-24.0125c0,-13.26174 -10.75076,-24.0125 -24.0125,-24.0125z" fill="#c8d1db"></path><path d="M177.975,166.675c12.43,0 22.6,10.17 22.6,22.6c0,12.43 -10.17,22.6 -22.6,22.6c-12.43,0 -22.6,-10.17 -22.6,-22.6c0,-12.43 10.17,-22.6 22.6,-22.6M177.975,163.85c-14.125,0 -25.425,11.3 -25.425,25.425c0,14.125 11.3,25.425 25.425,25.425c14.125,0 25.425,-11.3 25.425,-25.425c0,-14.125 -11.3,-25.425 -25.425,-25.425z" fill="#66798f"></path><path d="M177.975,180.8c-4.68061,0 -8.475,3.79439 -8.475,8.475c0,4.68061 3.79439,8.475 8.475,8.475c4.68061,0 8.475,-3.79439 8.475,-8.475c0,-4.68061 -3.79439,-8.475 -8.475,-8.475z" fill="#66798f"></path><path d="M1.4125,21.1875h124.3v166.675h-124.3z" fill="#bae0bd"></path><path d="M124.3,22.6v163.85h-121.475v-163.85h121.475M127.125,19.775h-127.125v169.5h127.125z" fill="#5e9c76"></path><path d="M53.675,165.2625c-13.26174,0 -24.0125,10.75076 -24.0125,24.0125c0,13.26174 10.75076,24.0125 24.0125,24.0125c13.26174,0 24.0125,-10.75076 24.0125,-24.0125c0,-13.26174 -10.75076,-24.0125 -24.0125,-24.0125z" fill="#c8d1db"></path><path d="M53.675,166.675c12.43,0 22.6,10.17 22.6,22.6c0,12.43 -10.17,22.6 -22.6,22.6c-12.43,0 -22.6,-10.17 -22.6,-22.6c0,-12.43 10.17,-22.6 22.6,-22.6M53.675,163.85c-14.125,0 -25.425,11.3 -25.425,25.425c0,14.125 11.3,25.425 25.425,25.425c14.125,0 25.425,-11.3 25.425,-25.425c0,-14.125 -11.3,-25.425 -25.425,-25.425z" fill="#66798f"></path><path d="M53.675,180.8c-4.68061,0 -8.475,3.79439 -8.475,8.475c0,4.68061 3.79439,8.475 8.475,8.475c4.68061,0 8.475,-3.79439 8.475,-8.475c0,-4.68061 -3.79439,-8.475 -8.475,-8.475z" fill="#66798f"></path><path d="M206.225,138.425h16.95v16.95h-16.95z" fill="#ffffff"></path><path d="M0,149.725h16.95v16.95h-16.95z" fill="#c74343"></path><path d="M163.85,125.7125c-2.26,0 -4.2375,-1.9775 -4.2375,-4.2375v-50.85c0,-2.26 1.9775,-4.2375 4.2375,-4.2375h44.635l13.8425,31.64c1.695,3.6725 2.26,7.6275 2.26,11.5825v16.1025z" fill="#c2e8ff"></path><path d="M207.355,67.8l13.56,30.7925c1.4125,3.39 2.26,7.0625 2.26,11.0175v14.69h-59.325c-1.695,0 -2.825,-1.13 -2.825,-2.825v-50.85c0,-1.695 1.13,-2.825 2.825,-2.825h43.505M209.3325,64.975h-45.4825c-3.1075,0 -5.65,2.5425 -5.65,5.65v50.85c0,3.1075 2.5425,5.65 5.65,5.65h62.15v-17.515c0,-4.2375 -0.8475,-8.1925 -2.5425,-12.1475l-14.125,-32.4875z" fill="#5e9c76"></path><path d="M62.15,128.5375c-25.7075,0 -46.6125,-20.905 -46.6125,-46.6125c0,-25.7075 20.905,-46.6125 46.6125,-46.6125c25.7075,0 46.6125,20.905 46.6125,46.6125c0,25.7075 -20.905,46.6125 -46.6125,46.6125z" fill="#ffffff"></path><path d="M62.15,36.725c24.86,0 45.2,20.34 45.2,45.2c0,24.86 -20.34,45.2 -45.2,45.2c-24.86,0 -45.2,-20.34 -45.2,-45.2c0,-24.86 20.34,-45.2 45.2,-45.2M62.15,33.9c-26.555,0 -48.025,21.47 -48.025,48.025c0,26.555 21.47,48.025 48.025,48.025c26.555,0 48.025,-21.47 48.025,-48.025c0,-26.555 -21.47,-48.025 -48.025,-48.025z" fill="#5e9c76"></path><path d="M82.49,102.5475l-23.165,-19.21v-34.7475h5.65v31.9225l21.1875,17.7975z" fill="#66798f"></path></g></g></svg>