<svg version="1.1" xmlns="http://www.w3.org/2000/svg" xmlns:xlink="http://www.w3.org/1999/xlink" viewBox="0 0 226 226"><g fill="none" fill-rule="nonzero" stroke="none" stroke-width="1" stroke-linecap="butt" stroke-linejoin="miter" stroke-miterlimit="10" stroke-dasharray="" stroke-dashoffset="0" font-family="none" font-weight="none" font-size="none" text-anchor="none" style="mix-blend-mode: normal"><path d="M0,226v-226h226v226z" fill="none"></path><g><path d="M12.7125,60.7375h200.575v158.2h-200.575z" fill="#dbf2ff"></path><path d="M211.875,62.15v155.375h-197.75v-155.375h197.75M214.7,59.325h-203.4v161.025h203.4v-161.025z" fill="#7496c4"></path><path d="M14.125,194.925h197.75v22.6h-197.75z" fill="#b5ddf5"></path><path d="M52.2625,120.0625h121.475v98.875h-121.475z" fill="#8bb7f0"></path><path d="M172.325,121.475v96.05h-118.65v-96.05h118.65M175.15,118.65h-124.3v101.7h124.3v-101.7z" fill="#4e7ab5"></path><path d="M110.175,118.65h5.65v101.7h-5.65z" fill="#4e7ab5"></path><path d="M158.2,105.9375c-11.6842,0 -21.1875,-9.5033 -21.1875,-21.1875c0,-0.7797 -0.6328,-1.4125 -1.4125,-1.4125c-0.7797,0 -1.4125,0.6328 -1.4125,1.4125c0,11.6842 -9.5033,21.1875 -21.1875,21.1875c-11.6842,0 -21.1875,-9.5033 -21.1875,-21.1875c0,-0.7797 -0.6328,-1.4125 -1.4125,-1.4125c-0.7797,0 -1.4125,0.6328 -1.4125,1.4125c0,11.6842 -9.5033,21.1875 -21.1875,21.1875c-11.6842,0 -21.1875,-9.5033 -21.1875,-21.1875c0,-0.7797 -0.6328,-1.4125 -1.4125,-1.4125c-0.7797,0 -1.4125,0.6328 -1.4125,1.4125c0,11.68138 -9.5033,21.1875 -21.1875,21.1875c-0.6893,0 -1.38425,-0.0339 -2.08485,-0.09887c-10.7124,-1.02265 -19.10265,-10.7124 -19.10265,-22.06043v-21.27225l16.7805,-31.17388c0.11018,-0.20623 0.1695,-0.43505 0.1695,-0.66953v-13.71255c0,-5.45225 4.43525,-9.8875 9.8875,-9.8875h169.5c5.45225,0 9.8875,4.43525 9.8875,9.8875v13.71255c0,0.23447 0.05933,0.4633 0.1695,0.66953l16.7805,31.17388v21.27225c0,11.34803 -8.39025,21.03778 -19.10265,22.06042c-0.7006,0.06498 -1.39555,0.09887 -2.08202,0.09887c0,0 0,0 -0.00283,0c-11.6842,0 -21.1875,-9.50613 -21.1875,-21.1875c0,-0.7797 -0.6328,-1.4125 -1.4125,-1.4125c-0.7797,0 -1.4125,0.6328 -1.4125,1.4125c0,11.6842 -9.5033,21.1875 -21.1875,21.1875z" fill="#f5ce85"></path><path d="M197.75,8.475c4.67255,0 8.475,3.80245 8.475,8.475v13.71255c0,0.46612 0.11582,0.9266 0.339,1.33905l16.611,30.8603v20.9163c0,10.62765 -7.82808,19.69872 -17.82292,20.65358c-0.64975,0.06215 -1.30515,0.09323 -1.95208,0.09323c-10.9045,0 -19.775,-8.8705 -19.775,-19.775c0,-1.5594 -1.2656,-2.825 -2.825,-2.825c-1.5594,0 -2.825,1.2656 -2.825,2.825c0,10.9045 -8.8705,19.775 -19.775,19.775c-10.9045,0 -19.775,-8.8705 -19.775,-19.775c0,-1.5594 -1.2656,-2.825 -2.825,-2.825c-1.5594,0 -2.825,1.2656 -2.825,2.825c0,10.9045 -8.8705,19.775 -19.775,19.775c-10.9045,0 -19.775,-8.8705 -19.775,-19.775c0,-1.5594 -1.2656,-2.825 -2.825,-2.825c-1.5594,0 -2.825,1.2656 -2.825,2.825c0,10.9045 -8.8705,19.775 -19.775,19.775c-10.9045,0 -19.775,-8.8705 -19.775,-19.775c0,-1.5594 -1.2656,-2.825 -2.825,-2.825c-1.5594,0 -2.825,1.2656 -2.825,2.825c0,10.9045 -8.8705,19.775 -19.775,19.775c-0.64692,0 -1.30232,-0.03108 -1.95208,-0.09323c-9.99485,-0.95202 -17.82293,-10.02593 -17.82293,-20.65358v-20.9163l16.611,-30.8603c0.22318,-0.40963 0.339,-0.8701 0.339,-1.33905v-13.71255c0,-4.67255 3.80245,-8.475 8.475,-8.475h169.5M197.75,5.65h-169.5c-6.24042,0 -11.3,5.05958 -11.3,11.3v13.71255l-16.95,31.48745v21.6282c0,11.80285 8.63037,22.34575 20.37955,23.46445c0.74863,0.07345 1.48877,0.10735 2.22045,0.10735c12.48085,0 22.6,-10.11915 22.6,-22.6c0,12.48085 10.11915,22.6 22.6,22.6c12.48085,0 22.6,-10.11915 22.6,-22.6c0,12.48085 10.11915,22.6 22.6,22.6c12.48085,0 22.6,-10.11915 22.6,-22.6c0,12.48085 10.11915,22.6 22.6,22.6c12.48085,0 22.6,-10.11915 22.6,-22.6c0,12.48085 10.11915,22.6 22.6,22.6c0.7345,0 1.47182,-0.0339 2.22045,-0.10735c11.74917,-1.1187 20.37955,-11.65878 20.37955,-23.46445v-21.6282l-16.95,-31.48745v-13.71255c0,-6.24043 -5.05957,-11.3 -11.3,-11.3z" fill="#967a44"></path><path d="M16.95,28.25h192.1v2.825h-192.1z" fill="#967a44"></path><path d="M3.28265,62.15h219.4347l-16.4415,-31.075h-186.5517z" fill="#ffeea3"></path><path d="M0,62.15h226v2.825h-226z" fill="#967a44"></path></g></g></svg>